<svg aria-hidden="true" style="position: absolute; width: 0; height: 0; overflow: hidden;" version="1.1" xmlns="http://www.w3.org/2000/svg" xmlns:xlink="http://www.w3.org/1999/xlink">
<defs>
<symbol id="icon-bell" viewBox="0 0 32 32">
<title>bell</title>
<path fill="#919191" style="fill: var(--color1, #919191)" d="M30.238 23.356c-2.492-1.906-4.087-4.876-4.102-8.22v-2.782c0-0.001 0-0.002 0-0.003 0-2.618-1.086-4.983-2.831-6.668l-0.003-0.003c-0.63-0.616-1.346-1.148-2.128-1.575l-0.050-0.025c-0.251-2.3-2.183-4.074-4.529-4.074-2.296 0-4.195 1.699-4.509 3.908l-0.003 0.024c-3.143 1.555-5.267 4.737-5.276 8.415v2.461c0 1.96-2.046 5.168-5.472 8.582-0.775 0.586-1.27 1.505-1.27 2.541 0 0.306 0.043 0.602 0.124 0.882l-0.006-0.022c0.69 1.642 2.632 1.674 4.2 1.698h5.036c1.497 2.134 3.945 3.512 6.716 3.512s5.219-1.378 6.699-3.485l0.017-0.026h4.938c1.444-0.022 3.502-0.054 4.088-1.776 0.574-1.684-1.036-2.902-1.64-3.362zM8.8 14.814v-2.46c0.030-3.367 2.263-6.203 5.327-7.14l0.053-0.014c-0.085-0.21-0.134-0.454-0.134-0.71 0-0.015 0-0.030 0.001-0.045l-0 0.002c0-1.406 1.14-2.546 2.546-2.546s2.546 1.14 2.546 2.546v0c-0 0.298-0.057 0.582-0.159 0.844l0.005-0.016c1.133 0.394 2.103 1.004 2.904 1.785l-0.002-0.001c1.383 1.342 2.243 3.217 2.248 5.293v2.781c0.005 2.582 0.812 4.975 2.186 6.944l-0.026-0.040h-21.054c1.852-1.913 3.13-4.391 3.551-7.151l0.009-0.073zM27.838 26.536h-6.158c-1.007 2.091-3.11 3.509-5.544 3.509s-4.537-1.418-5.528-3.472l-0.016-0.037h-6.182c-2.222-0.034-3.2-0.222-1.648-1.774 0.252-0.252 0.532-0.54 0.824-0.848h24.288c0.349 0.342 0.72 0.664 1.111 0.963l0.029 0.021c1.752 1.328 1.044 1.604-1.172 1.638z"></path>
</symbol>
<symbol id="icon-books" viewBox="0 0 32 32">
<title>books</title>
<path fill="#919191" style="fill: var(--color1, #919191)" d="M12.161 1.276v29.231h-10.827v-29.231h10.827zM12.253 0h-11.003c-0.008-0-0.017-0-0.026-0-0.666 0-1.207 0.536-1.216 1.2v29.408c0.015 0.66 0.554 1.189 1.216 1.189 0.009 0 0.018-0 0.028-0l-0.001 0h11.003c0.008 0 0.017 0 0.026 0 0.662 0 1.2-0.529 1.216-1.187l0-0.001v-29.407c-0.009-0.665-0.55-1.201-1.216-1.201-0.009 0-0.018 0-0.027 0l0.001-0z"></path>
<path fill="#919191" style="fill: var(--color1, #919191)" d="M22.886 2.209v0zM22.796 2.233l7.852 25.838-9.46 2.635-7.852-25.842 9.46-2.633zM22.86 0.932c-0.001 0-0.002 0-0.003 0-0.123 0-0.242 0.018-0.354 0.050l0.009-0.002-9.636 2.681c-0.517 0.133-0.893 0.595-0.893 1.145 0 0.117 0.017 0.23 0.049 0.336l-0.002-0.008 7.902 26.006c0.165 0.501 0.628 0.856 1.175 0.856 0.009 0 0.018-0 0.027-0l-0.001 0c0.124-0 0.244-0.018 0.357-0.050l-0.009 0.002 9.636-2.683c0.517-0.133 0.892-0.595 0.892-1.145 0-0.116-0.017-0.228-0.048-0.334l0.002 0.008-7.902-26.006c-0.165-0.502-0.629-0.858-1.177-0.858-0.008 0-0.016 0-0.024 0l0.001-0z"></path>
<path fill="#919191" style="fill: var(--color1, #919191)" d="M6.75 4.015c1.105 0 2.001 0.896 2.001 2s-0.896 2.001-2.001 2.001c-1.105 0-2.001-0.896-2.001-2.001v0c0-1.105 0.896-2.001 2.001-2.001v0zM6.75 2.683c-1.841 0-3.333 1.492-3.333 3.333s1.492 3.333 3.333 3.333c1.841 0 3.333-1.492 3.333-3.333v0c0-1.841-1.492-3.333-3.333-3.333v0z"></path>
<path fill="#919191" style="fill: var(--color1, #919191)" d="M19.919 6.244c1.105 0 2 0.896 2 2s-0.896 2.001-2 2.001c-1.105 0-2-0.896-2-2.001v0c0-1.105 0.896-2.001 2-2.001v0zM19.919 4.909c-1.841 0-3.333 1.492-3.333 3.333s1.492 3.333 3.333 3.333c1.841 0 3.333-1.492 3.333-3.333v0c0-1.841-1.492-3.333-3.333-3.333v0z"></path>
<path fill="#919191" style="fill: var(--color1, #919191)" d="M8.75 12.771v15.584h-4.001v-15.584h4.001zM8.868 11.571h-4.237c-0.017-0.001-0.038-0.001-0.058-0.001-0.616 0-1.12 0.481-1.156 1.089l-0 0.003v15.804c0.036 0.609 0.539 1.090 1.154 1.090 0.021 0 0.042-0.001 0.063-0.002l-0.003 0h4.237c0.018 0.001 0.039 0.002 0.060 0.002 0.615 0 1.118-0.48 1.154-1.087l0-0.003v-15.804c-0.036-0.61-0.54-1.092-1.156-1.092-0.020 0-0.041 0.001-0.061 0.002l0.003-0z"></path>
<path fill="#919191" style="fill: var(--color1, #919191)" d="M23.684 14.756l3.347 11.177-3.839 1.122-3.349-11.183 3.841-1.116zM23.684 13.393c-0.093 0.001-0.182 0.019-0.263 0.052l0.005-0.002-4.069 1.182c-0.51 0.151-0.876 0.616-0.876 1.166 0 0.12 0.018 0.237 0.050 0.347l-0.002-0.009 3.413 11.403c0.152 0.51 0.616 0.876 1.166 0.876h0c0.121-0 0.238-0.019 0.349-0.052l-0.009 0.002 4.069-1.182c0.51-0.152 0.876-0.617 0.876-1.168 0-0.12-0.017-0.236-0.050-0.345l0.002 0.009-3.415-11.403c-0.151-0.51-0.616-0.876-1.166-0.876v0z"></path>
</symbol>
<symbol id="icon-check-x-box" viewBox="0 0 32 32">
<title>check-x-box</title>
<path fill="none" stroke="#919191" style="stroke: var(--color1, #919191)" stroke-linejoin="miter" stroke-linecap="butt" stroke-miterlimit="4" stroke-width="2" d="M6 0h20c3.314 0 6 2.686 6 6v20c0 3.314-2.686 6-6 6h-20c-3.314 0-6-2.686-6-6v-20c0-3.314 2.686-6 6-6z"></path>
<path fill="none" stroke="#919191" style="stroke: var(--color1, #919191)" stroke-linejoin="miter" stroke-linecap="butt" stroke-miterlimit="4" stroke-width="2" d="M6 1h20c2.761 0 5 2.239 5 5v20c0 2.761-2.239 5-5 5h-20c-2.761 0-5-2.239-5-5v-20c0-2.761 2.239-5 5-5z"></path>
<path fill="#919191" style="fill: var(--color1, #919191)" d="M16.294 6.279l-0.974-1.011c-0.132-0.133-0.316-0.215-0.518-0.211s-0.383 0.091-0.51 0.229l-0 0-5.747 5.959-2.407-2.334c-0.132-0.133-0.316-0.215-0.518-0.211s-0.383 0.091-0.51 0.229l-0 0-0.935 0.966c-0.133 0.132-0.214 0.317-0.21 0.519s0.091 0.383 0.228 0.511l0 0 3.939 3.81c0.132 0.133 0.316 0.215 0.518 0.211s0.383-0.091 0.51-0.229l0-0 7.152-7.408c0.133-0.132 0.214-0.317 0.21-0.519s-0.091-0.383-0.228-0.511l-0-0z"></path>
<path fill="#919191" style="fill: var(--color1, #919191)" d="M17.438 19.358l1.761-1.761 7.862 7.862-1.761 1.761z"></path>
<path fill="#919191" style="fill: var(--color1, #919191)" d="M19.202 26.974l-1.754-1.754 7.457-7.457 1.754 1.754z"></path>
</symbol>
<symbol id="icon-circles-in-square" viewBox="0 0 32 32">
<title>circles-in-square</title>
<path fill="#919191" style="fill: var(--color1, #919191)" d="M20 16c0 2.209-1.791 4-4 4s-4-1.791-4-4c0-2.209 1.791-4 4-4s4 1.791 4 4z"></path>
<path fill="#919191" style="fill: var(--color1, #919191)" d="M8 16c0 2.209-1.791 4-4 4s-4-1.791-4-4c0-2.209 1.791-4 4-4s4 1.791 4 4z"></path>
<path fill="#919191" style="fill: var(--color1, #919191)" d="M32 16c0 2.209-1.791 4-4 4s-4-1.791-4-4c0-2.209 1.791-4 4-4s4 1.791 4 4z"></path>
<path fill="#919191" style="fill: var(--color1, #919191)" d="M20 4c0 2.209-1.791 4-4 4s-4-1.791-4-4c0-2.209 1.791-4 4-4s4 1.791 4 4z"></path>
<path fill="#919191" style="fill: var(--color1, #919191)" d="M8 4c0 2.209-1.791 4-4 4s-4-1.791-4-4c0-2.209 1.791-4 4-4s4 1.791 4 4z"></path>
<path fill="#919191" style="fill: var(--color1, #919191)" d="M32 4c0 2.209-1.791 4-4 4s-4-1.791-4-4c0-2.209 1.791-4 4-4s4 1.791 4 4z"></path>
<path fill="#919191" style="fill: var(--color1, #919191)" d="M20 28c0 2.209-1.791 4-4 4s-4-1.791-4-4c0-2.209 1.791-4 4-4s4 1.791 4 4z"></path>
<path fill="#919191" style="fill: var(--color1, #919191)" d="M8 28c0 2.209-1.791 4-4 4s-4-1.791-4-4c0-2.209 1.791-4 4-4s4 1.791 4 4z"></path>
<path fill="#919191" style="fill: var(--color1, #919191)" d="M32 28c0 2.209-1.791 4-4 4s-4-1.791-4-4c0-2.209 1.791-4 4-4s4 1.791 4 4z"></path>
</symbol>
<symbol id="icon-close" viewBox="0 0 36 32">
<title>close</title>
<path fill="none" stroke="#585858" style="stroke: var(--color2, #585858)" stroke-linejoin="round" stroke-linecap="round" stroke-miterlimit="10" stroke-width="2.7334" d="M7.099 1.933l-5.74 5.74 5.74 5.74"></path>
<path fill="none" stroke="#585858" style="stroke: var(--color2, #585858)" stroke-linejoin="miter" stroke-linecap="round" stroke-miterlimit="10" stroke-width="2.7334" d="M28.157 24.849c0.043 0.001 0.093 0.002 0.144 0.002 3.191 0 5.788-2.546 5.869-5.718l0-0.008v-5.74c-0.074-3.187-2.675-5.742-5.873-5.742-0.050 0-0.099 0.001-0.148 0.002l0.007-0h-24.054"></path>
<path fill="#585858" style="fill: var(--color2, #585858)" d="M12.967 18.333h8.2c1.51 0 2.733 1.224 2.733 2.733v8.2c0 1.51-1.224 2.733-2.733 2.733h-8.2c-1.51 0-2.733-1.224-2.733-2.733v-8.2c0-1.51 1.224-2.733 2.733-2.733z"></path>
</symbol>
<symbol id="icon-cloud" viewBox="0 0 43 32">
<title>cloud</title>
<path fill="#191919" style="fill: var(--color3, #191919); stroke: var(--color4, #707070)" stroke="#707070" stroke-linejoin="miter" stroke-linecap="butt" stroke-miterlimit="4" stroke-width="1.3333" d="M5.333 0h32c2.946 0 5.333 2.388 5.333 5.333v21.333c0 2.946-2.388 5.333-5.333 5.333h-32c-2.946 0-5.333-2.388-5.333-5.333v-21.333c0-2.946 2.388-5.333 5.333-5.333z"></path>
<path fill="none" stroke="#707070" style="stroke: var(--color4, #707070)" stroke-linejoin="miter" stroke-linecap="butt" stroke-miterlimit="4" stroke-width="1.3333" d="M5.333 0.667h32c2.577 0 4.667 2.089 4.667 4.667v21.333c0 2.577-2.089 4.667-4.667 4.667h-32c-2.577 0-4.667-2.089-4.667-4.667v-21.333c0-2.577 2.089-4.667 4.667-4.667z"></path>
<path fill="#919191" style="fill: var(--color1, #919191)" d="M30.828 22.673h-4.765v1.333h-8.064v-1.333h-4.764v-5.32h3.043v-2.013h2.235v-0.639h2.081v-1.361h2.876v1.357h2.081v0.643h2.235v2.016h3.043z"></path>
<path fill="none" stroke="#919191" style="stroke: var(--color1, #919191)" stroke-linejoin="miter" stroke-linecap="butt" stroke-miterlimit="4" stroke-width="1.3333" d="M10.821 5.333v21.333h21.333"></path>
<path fill="#919191" style="fill: var(--color1, #919191)" d="M14.667 9.333h2.667v2.667h-2.667v-2.667z"></path>
<path fill="#919191" style="fill: var(--color1, #919191)" d="M26.667 10.667h2.667v2.667h-2.667v-2.667z"></path>
<path fill="#919191" style="fill: var(--color1, #919191)" d="M20 6.667h2.667v2.667h-2.667v-2.667z"></path>
<path fill="#919191" style="fill: var(--color1, #919191)" d="M25.333 5.333h2.667v2.667h-2.667v-2.667z"></path>
</symbol>
<symbol id="icon-crosshair-tool" viewBox="0 0 43 32">
<title>crosshair-tool</title>
<path stroke-linejoin="miter" stroke-linecap="butt" stroke-miterlimit="4" stroke-width="1.3333" d="M5.333 0h32c2.946 0 5.333 2.388 5.333 5.333v21.333c0 2.946-2.388 5.333-5.333 5.333h-32c-2.946 0-5.333-2.388-5.333-5.333v-21.333c0-2.946 2.388-5.333 5.333-5.333z"></path>
<path fill="none" stroke="#707070" style="stroke: var(--color4, #707070)" stroke-linejoin="miter" stroke-linecap="butt" stroke-miterlimit="4" stroke-width="1.3333" d="M5.333 0.667h32c2.577 0 4.667 2.089 4.667 4.667v21.333c0 2.577-2.089 4.667-4.667 4.667h-32c-2.577 0-4.667-2.089-4.667-4.667v-21.333c0-2.577 2.089-4.667 4.667-4.667z"></path>
<path fill="none" stroke="#838383" style="stroke: var(--color5, #838383)" stroke-linejoin="miter" stroke-linecap="butt" stroke-miterlimit="4" stroke-width="1.3333" d="M31.984 16c0 5.523-4.477 10-10 10s-10-4.477-10-10c0-5.523 4.477-10 10-10s10 4.477 10 10z"></path>
<path fill="none" stroke="#838383" style="stroke: var(--color5, #838383)" stroke-linejoin="miter" stroke-linecap="butt" stroke-miterlimit="4" stroke-width="1.3333" d="M26.651 16c0 2.577-2.089 4.667-4.667 4.667s-4.667-2.089-4.667-4.667c0-2.577 2.089-4.667 4.667-4.667s4.667 2.089 4.667 4.667z"></path>
<path fill="none" stroke="#838383" style="stroke: var(--color5, #838383)" stroke-linejoin="miter" stroke-linecap="round" stroke-miterlimit="4" stroke-width="1.3333" d="M21.984 8.767v5.532"></path>
<path fill="none" stroke="#838383" style="stroke: var(--color5, #838383)" stroke-linejoin="miter" stroke-linecap="round" stroke-miterlimit="4" stroke-width="1.3333" d="M21.984 17.955v5.3"></path>
<path fill="none" stroke="#838383" style="stroke: var(--color5, #838383)" stroke-linejoin="miter" stroke-linecap="round" stroke-miterlimit="4" stroke-width="1.3333" d="M24.352 16h4.417"></path>
<path fill="none" stroke="#838383" style="stroke: var(--color5, #838383)" stroke-linejoin="miter" stroke-linecap="round" stroke-miterlimit="4" stroke-width="1.3333" d="M15.019 16h4.417"></path>
</symbol>
<symbol id="icon-document" viewBox="0 0 24 32">
<title>document</title>
<path fill="#919191" style="fill: var(--color1, #919191)" d="M23.957 9.171v0l-9.167-9.169-0.012 0.012h-13.839c-0.516 0.001-0.934 0.419-0.936 0.936v30.117c0.001 0.516 0.419 0.934 0.936 0.936h22.116c0.516-0.001 0.934-0.419 0.936-0.936v-21.862zM15 3.037l5.978 5.978h-5.044c-0.518 0-0.938-0.42-0.938-0.938v0zM21.998 30.001h-19.992v-27.989h10.996v6.066c0.002 1.621 1.316 2.935 2.937 2.937h6.054z"></path>
<path fill="#919191" style="fill: var(--color1, #919191)" d="M4.598 13.681h15.014v1.999h-15.014v-1.999z"></path>
<path fill="#919191" style="fill: var(--color1, #919191)" d="M4.598 17.679h15.014v1.999h-15.014v-1.999z"></path>
<path fill="#919191" style="fill: var(--color1, #919191)" d="M4.598 21.678h15.014v1.999h-15.014v-1.999z"></path>
<path fill="#919191" style="fill: var(--color1, #919191)" d="M4.598 25.676h15.014v1.999h-15.014v-1.999z"></path>
</symbol>
<symbol id="icon-down-arrows" viewBox="0 0 23 32">
<title>down-arrows</title>
<path fill="none" stroke="#919191" style="stroke: var(--color1, #919191)" stroke-linejoin="miter" stroke-linecap="round" stroke-miterlimit="4" stroke-width="4.3176" d="M3.053 3.053l8.635 8.564 8.635-8.564"></path>
<path fill="none" stroke="#919191" style="stroke: var(--color1, #919191)" stroke-linejoin="miter" stroke-linecap="round" stroke-miterlimit="4" stroke-width="4.3176" d="M3.053 20.394l8.635 8.564 8.635-8.564"></path>
</symbol>
<symbol id="icon-eye" viewBox="0 0 43 32">
<title>eye</title>
<path fill="#191919" style="fill: var(--color3, #191919); stroke: var(--color4, #707070)" stroke="#707070" stroke-linejoin="miter" stroke-linecap="butt" stroke-miterlimit="4" stroke-width="1.3333" d="M5.333 0h32c2.946 0 5.333 2.388 5.333 5.333v21.333c0 2.946-2.388 5.333-5.333 5.333h-32c-2.946 0-5.333-2.388-5.333-5.333v-21.333c0-2.946 2.388-5.333 5.333-5.333z"></path>
<path fill="none" stroke="#707070" style="stroke: var(--color4, #707070)" stroke-linejoin="miter" stroke-linecap="butt" stroke-miterlimit="4" stroke-width="1.3333" d="M5.333 0.667h32c2.577 0 4.667 2.089 4.667 4.667v21.333c0 2.577-2.089 4.667-4.667 4.667h-32c-2.577 0-4.667-2.089-4.667-4.667v-21.333c0-2.577 2.089-4.667 4.667-4.667z"></path>
<path fill="#919191" style="fill: var(--color1, #919191)" d="M22.472 22.124c-3.175-0.083-5.718-2.677-5.718-5.865 0-0.048 0.001-0.095 0.002-0.142l-0 0.007c-0.001-0.040-0.002-0.088-0.002-0.135 0-3.188 2.542-5.782 5.71-5.865l0.008-0c3.175 0.083 5.718 2.677 5.718 5.865 0 0.048-0.001 0.095-0.002 0.142l0-0.007c0.001 0.040 0.002 0.088 0.002 0.135 0 3.188-2.542 5.782-5.71 5.865l-0.008 0zM22.472 10.973c-2.724 0.070-4.905 2.295-4.905 5.029 0 0.043 0.001 0.085 0.002 0.128l-0-0.006c-0.001 0.035-0.001 0.077-0.001 0.119 0 2.734 2.181 4.959 4.899 5.029l0.006 0c2.724-0.070 4.905-2.295 4.905-5.029 0-0.042-0-0.084-0.002-0.125l0 0.006c0.001-0.033 0.001-0.072 0.001-0.111 0-2.736-2.18-4.963-4.898-5.038l-0.007-0z"></path>
<path fill="#919191" style="fill: var(--color1, #919191)" d="M22.623 16.191l1.568-3.253c-0.502-0.324-1.116-0.517-1.775-0.517-1.283 0-2.396 0.731-2.943 1.8l-0.009 0.019c-0.309 0.547-0.491 1.201-0.491 1.897 0 1.33 0.664 2.504 1.678 3.211l0.013 0.008c0.503 0.325 1.118 0.519 1.778 0.519 1.282 0 2.394-0.73 2.943-1.797l0.009-0.019c0.305-0.551 0.484-1.209 0.484-1.908 0-0.582-0.124-1.135-0.348-1.634l0.010 0.025z"></path>
<path fill="#919191" style="fill: var(--color1, #919191)" d="M32.977 15.643c-0.212-0.233-5.2-5.505-10.501-5.505s-10.461 5.455-10.675 5.687c-0.070 0.082-0.125 0.181-0.156 0.289l-0.001 0.006c0.030 0.115 0.083 0.216 0.153 0.301l-0.001-0.001c0.223 0.233 5.364 5.675 10.657 5.693v-0.851c-4.276-0.016-8.633-3.997-9.792-5.136 1.16-1.141 5.531-5.137 9.819-5.137s8.656 4 9.819 5.137z"></path>
</symbol>
<symbol id="icon-filter" viewBox="0 0 32 32">
<title>filter</title>
<path fill="#919191" style="fill: var(--color1, #919191)" d="M19.652 32v0c-0.565-0.026-1.013-0.49-1.013-1.059 0-0.016 0-0.032 0.001-0.047l-0 0.002v-17.026c-0-0.004-0-0.009-0-0.015 0-0.587 0.222-1.123 0.586-1.527l-0.002 0.002 9.278-10.124h-25l9.784 10.676c0.362 0.402 0.584 0.936 0.584 1.522 0 0.005-0 0.011-0 0.017v-0.001 9.4l2.754 3c0.183 0.207 0.295 0.481 0.295 0.781s-0.112 0.574-0.297 0.782l0.001-0.001c-0.175 0.199-0.431 0.323-0.715 0.323s-0.54-0.125-0.714-0.322l-0.001-0.001-3.056-3.336c-0.179-0.199-0.288-0.464-0.288-0.754 0-0.003 0-0.005 0-0.008v0-9.114c0-0.004 0-0.008 0-0.013 0-0.48-0.181-0.918-0.48-1.249l0.001 0.002-11.074-12.084c-0.184-0.194-0.297-0.457-0.297-0.746 0-0.566 0.433-1.031 0.987-1.082l0.004-0h30.032c0.557 0.050 0.991 0.516 0.991 1.082 0 0.289-0.113 0.552-0.297 0.747l0-0-10.568 11.532c-0.297 0.329-0.478 0.767-0.478 1.247 0 0.004 0 0.008 0 0.011v-0.001 16.276c0.001 0.015 0.001 0.032 0.001 0.049 0 0.572-0.453 1.038-1.019 1.059l-0.002 0z"></path>
</symbol>
<symbol id="icon-filter-list-button" viewBox="0 0 43 32">
<title>filter-list-button</title>
<path fill="#191919" style="fill: var(--color3, #191919); stroke: var(--color4, #707070)" stroke="#707070" stroke-linejoin="miter" stroke-linecap="butt" stroke-miterlimit="4" stroke-width="1.3333" d="M5.333 0h32c2.946 0 5.333 2.388 5.333 5.333v21.333c0 2.946-2.388 5.333-5.333 5.333h-32c-2.946 0-5.333-2.388-5.333-5.333v-21.333c0-2.946 2.388-5.333 5.333-5.333z"></path>
<path fill="none" stroke="#707070" style="stroke: var(--color4, #707070)" stroke-linejoin="miter" stroke-linecap="butt" stroke-miterlimit="4" stroke-width="1.3333" d="M5.333 0.667h32c2.577 0 4.667 2.089 4.667 4.667v21.333c0 2.577-2.089 4.667-4.667 4.667h-32c-2.577 0-4.667-2.089-4.667-4.667v-21.333c0-2.577 2.089-4.667 4.667-4.667z"></path>
<path fill="#919191" style="fill: var(--color1, #919191)" d="M15.824 6.667h15.084z"></path>
<path fill="#919191" style="fill: var(--color1, #919191)" d="M31.283 7.333h-15.084c-0.368 0-0.667-0.298-0.667-0.667s0.298-0.667 0.667-0.667v0h15.084c0.368 0 0.667 0.298 0.667 0.667s-0.298 0.667-0.667 0.667v0z"></path>
<path fill="#919191" style="fill: var(--color1, #919191)" d="M13.283 6.667c0 0.736-0.597 1.333-1.333 1.333s-1.333-0.597-1.333-1.333c0-0.736 0.597-1.333 1.333-1.333s1.333 0.597 1.333 1.333z"></path>
<path fill="#919191" style="fill: var(--color1, #919191)" d="M15.824 12.889h15.308z"></path>
<path fill="#919191" style="fill: var(--color1, #919191)" d="M31.283 13.536h-15.433c-0.368 0-0.667-0.298-0.667-0.667s0.298-0.667 0.667-0.667v0h15.433c0.368 0 0.667 0.298 0.667 0.667s-0.298 0.667-0.667 0.667v0z"></path>
<path fill="#919191" style="fill: var(--color1, #919191)" d="M13.283 12.889c0 0.736-0.597 1.333-1.333 1.333s-1.333-0.597-1.333-1.333c0-0.736 0.597-1.333 1.333-1.333s1.333 0.597 1.333 1.333z"></path>
<path fill="#919191" style="fill: var(--color1, #919191)" d="M15.824 19.111h4.625z"></path>
<path fill="#919191" style="fill: var(--color1, #919191)" d="M20.449 19.777h-4.625c-0.368 0-0.667-0.298-0.667-0.667s0.298-0.667 0.667-0.667v0h4.625c0.368 0 0.667 0.298 0.667 0.667s-0.298 0.667-0.667 0.667v0z"></path>
<path fill="#919191" style="fill: var(--color1, #919191)" d="M13.283 19.111c0 0.736-0.597 1.333-1.333 1.333s-1.333-0.597-1.333-1.333c0-0.736 0.597-1.333 1.333-1.333s1.333 0.597 1.333 1.333z"></path>
<path fill="#919191" style="fill: var(--color1, #919191)" d="M13.283 25.333c0 0.736-0.597 1.333-1.333 1.333s-1.333-0.597-1.333-1.333c0-0.736 0.597-1.333 1.333-1.333s1.333 0.597 1.333 1.333z"></path>
<path fill="#919191" style="fill: var(--color1, #919191)" d="M21.857 26h-6.033c-0.368 0-0.667-0.298-0.667-0.667s0.298-0.667 0.667-0.667v0h6.033c0.368 0 0.667 0.298 0.667 0.667s-0.298 0.667-0.667 0.667v0z"></path>
<path fill="#919191" style="fill: var(--color1, #919191)" d="M31.283 16.028h-9.333c-0.001 0-0.002 0-0.004 0-0.368 0-0.667 0.298-0.667 0.667 0 0.16 0.056 0.306 0.15 0.421l-0.001-0.001 3.855 4.124v4.761c0 0.368 0.298 0.667 0.667 0.667v0h1.333c0.368 0 0.667-0.298 0.667-0.667v0-4.763l3.852-4.124c0.092-0.113 0.148-0.26 0.148-0.419 0-0.368-0.298-0.667-0.667-0.667v0z"></path>
</symbol>
<symbol id="icon-left-arrows" viewBox="0 0 44 32">
<title>left-arrows</title>
<path fill="none" stroke="#919191" style="stroke: var(--color1, #919191)" stroke-linejoin="miter" stroke-linecap="round" stroke-miterlimit="4" stroke-width="5.9106" d="M39.625 4.179l-11.724 11.821 11.724 11.821"></path>
<path fill="none" stroke="#919191" style="stroke: var(--color1, #919191)" stroke-linejoin="miter" stroke-linecap="round" stroke-miterlimit="4" stroke-width="5.9106" d="M15.885 4.179l-11.724 11.821 11.724 11.821"></path>
</symbol>
<symbol id="icon-mirror" viewBox="0 0 43 32">
<title>mirror</title>
<path fill="#191919" style="fill: var(--color3, #191919); stroke: var(--color4, #707070)" stroke="#707070" stroke-linejoin="miter" stroke-linecap="butt" stroke-miterlimit="4" stroke-width="1.3333" d="M5.333 0h32c2.946 0 5.333 2.388 5.333 5.333v21.333c0 2.946-2.388 5.333-5.333 5.333h-32c-2.946 0-5.333-2.388-5.333-5.333v-21.333c0-2.946 2.388-5.333 5.333-5.333z"></path>
<path fill="none" stroke="#707070" style="stroke: var(--color4, #707070)" stroke-linejoin="miter" stroke-linecap="butt" stroke-miterlimit="4" stroke-width="1.3333" d="M5.333 0.667h32c2.577 0 4.667 2.089 4.667 4.667v21.333c0 2.577-2.089 4.667-4.667 4.667h-32c-2.577 0-4.667-2.089-4.667-4.667v-21.333c0-2.577 2.089-4.667 4.667-4.667z"></path>
<path fill="#919191" style="fill: var(--color1, #919191)" d="M13.667 23.667v-16h2.897v1.333h0.724v1.333h0.724v2.667h0.721v1.333h0.724v2.667h-0.724v1.333h-0.721v2.667h-0.724v1.333h-0.724v1.333z"></path>
<path fill="#919191" style="fill: var(--color1, #919191)" d="M31 7.667v16h-3.007v-1.333h-0.751v-1.333h-0.752v-2.667h-0.751v-1.333h-0.752v-2.667h0.751v-1.333h0.752v-2.667h0.752v-1.333h0.751v-1.333z"></path>
<path fill="none" stroke="#919191" style="stroke: var(--color1, #919191)" stroke-linejoin="miter" stroke-linecap="butt" stroke-miterlimit="4" stroke-width="1.3333" d="M10.821 5.333v21.333h21.333"></path>
</symbol>
<symbol id="icon-mult-group" viewBox="0 0 43 32">
<title>mult-group</title>
<path stroke-linejoin="miter" stroke-linecap="butt" stroke-miterlimit="4" stroke-width="1.3333" d="M5.333 0h32c2.946 0 5.333 2.388 5.333 5.333v21.333c0 2.946-2.388 5.333-5.333 5.333h-32c-2.946 0-5.333-2.388-5.333-5.333v-21.333c0-2.946 2.388-5.333 5.333-5.333z"></path>
<path fill="none" stroke="#707070" style="stroke: var(--color4, #707070)" stroke-linejoin="miter" stroke-linecap="butt" stroke-miterlimit="4" stroke-width="1.3333" d="M5.333 0.667h32c2.577 0 4.667 2.089 4.667 4.667v21.333c0 2.577-2.089 4.667-4.667 4.667h-32c-2.577 0-4.667-2.089-4.667-4.667v-21.333c0-2.577 2.089-4.667 4.667-4.667z"></path>
<path fill="none" stroke="#919191" style="stroke: var(--color1, #919191)" stroke-linejoin="miter" stroke-linecap="butt" stroke-miterlimit="4" stroke-width="1.3333" d="M18.281 8.943h7v4.961h-7v-4.961z"></path>
<path fill="none" stroke="#919191" style="stroke: var(--color1, #919191)" stroke-linejoin="miter" stroke-linecap="butt" stroke-miterlimit="4" stroke-width="1.3333" d="M18.948 9.609h5.667v3.628h-5.667v-3.628z"></path>
<path fill="none" stroke="#919191" style="stroke: var(--color1, #919191)" stroke-linejoin="miter" stroke-linecap="butt" stroke-miterlimit="4" stroke-width="1.3333" d="M26.813 19.724h5.635v3.885h-5.635v-3.885z"></path>
<path fill="none" stroke="#919191" style="stroke: var(--color1, #919191)" stroke-linejoin="miter" stroke-linecap="butt" stroke-miterlimit="4" stroke-width="1.3333" d="M27.48 20.391h4.301v2.552h-4.301v-2.552z"></path>
<path fill="none" stroke="#919191" style="stroke: var(--color1, #919191)" stroke-linejoin="miter" stroke-linecap="butt" stroke-miterlimit="4" stroke-width="1.3333" d="M18.964 19.724h5.635v3.885h-5.635v-3.885z"></path>
<path fill="none" stroke="#919191" style="stroke: var(--color1, #919191)" stroke-linejoin="miter" stroke-linecap="butt" stroke-miterlimit="4" stroke-width="1.3333" d="M19.631 20.391h4.301v2.552h-4.301v-2.552z"></path>
<path fill="none" stroke="#919191" style="stroke: var(--color1, #919191)" stroke-linejoin="miter" stroke-linecap="butt" stroke-miterlimit="4" stroke-width="1.3333" d="M11.115 19.724h5.635v3.885h-5.635v-3.885z"></path>
<path fill="none" stroke="#919191" style="stroke: var(--color1, #919191)" stroke-linejoin="miter" stroke-linecap="butt" stroke-miterlimit="4" stroke-width="1.3333" d="M11.781 20.391h4.301v2.552h-4.301v-2.552z"></path>
<path fill="none" stroke="#919191" style="stroke: var(--color1, #919191)" stroke-linejoin="miter" stroke-linecap="butt" stroke-miterlimit="4" stroke-width="1.3333" d="M13.643 20.012v-3.427h16.203v3.427"></path>
<path fill="none" stroke="#919191" style="stroke: var(--color1, #919191)" stroke-linejoin="miter" stroke-linecap="butt" stroke-miterlimit="4" stroke-width="1.3333" d="M21.78 13.904v5.901"></path>
</symbol>
<symbol id="icon-nih" viewBox="0 0 47 32">
<title>nih</title>
<path fill="#c2c2c2" style="fill: var(--color6, #c2c2c2)" d="M36.588 31.892c1.246-0.204 2.294-0.919 2.94-1.918l0.010-0.017 0.291-0.611 6.729-13.341-6.743-13.344-0.291-0.611c-0.656-1.016-1.704-1.73-2.925-1.931l-0.025-0.003c-0.346-0.077-0.744-0.121-1.152-0.121s-0.806 0.044-1.189 0.128l0.037-0.007h-0.079l7.93 15.788-7.93 15.785h0.093c0.411 0.21 0.897 0.333 1.411 0.333 0.318 0 0.626-0.047 0.916-0.135l-0.022 0.006z"></path>
<path fill="#c2c2c2" style="fill: var(--color6, #c2c2c2)" d="M31.916 0h-29.364c-1.426 0.073-2.554 1.247-2.554 2.685 0 0.044 0.001 0.088 0.003 0.132l-0-0.006v26.377c-0.002 0.037-0.003 0.081-0.003 0.125 0 1.437 1.128 2.611 2.548 2.684l0.006 0h29.364l8.032-15.971zM15.043 22.429h-2.124l-5.591-9.51c-0.157-0.22-0.271-0.482-0.324-0.765l-0.002-0.012h-0.055c0.040 0.397 0.063 0.859 0.063 1.326 0 0.165-0.003 0.329-0.009 0.493l0.001-0.024v8.492h-1.9v-12.919h2.281l5.417 9.271c0.218 0.358 0.381 0.657 0.433 0.777h0.055c-0.069-0.474-0.109-1.021-0.109-1.578 0-0.059 0-0.118 0.001-0.176l-0 0.009v-8.303h1.9v12.919zM19.988 22.429h-2.007v-12.919h2.007zM30.356 22.429v-5.62h-5.527v5.62h-1.978v-12.919h1.955v5.443h5.527v-5.443h1.958v12.98h-1.949z"></path>
</symbol>
<symbol id="icon-pencil" viewBox="0 0 29 32">
<title>pencil</title>
<path fill="#919191" style="fill: var(--color1, #919191)" d="M11.412 27.767l-7.982-6.464 13.371-16.512 7.871-1.558 0.111 8.022zM6.158 21.199l4.789 3.878 11.869-14.657-0.066-4.813-4.723 0.935z"></path>
<path fill="#919191" style="fill: var(--color1, #919191)" d="M3.122 22.977l6.713 5.436c0.349 0.282 0.402 0.794 0.12 1.143l-1.468 1.813c-0.282 0.349-0.794 0.402-1.143 0.12l-6.713-5.436c-0.349-0.282-0.402-0.794-0.12-1.143l1.468-1.813c0.282-0.349 0.794-0.402 1.143-0.12z"></path>
</symbol>
<symbol id="icon-polygon-tool" viewBox="0 0 43 32">
<title>polygon-tool</title>
<path fill="#191919" style="fill: var(--color3, #191919); stroke: var(--color4, #707070)" stroke="#707070" stroke-linejoin="miter" stroke-linecap="butt" stroke-miterlimit="4" stroke-width="1.3333" d="M5.333 0h32c2.946 0 5.333 2.388 5.333 5.333v21.333c0 2.946-2.388 5.333-5.333 5.333h-32c-2.946 0-5.333-2.388-5.333-5.333v-21.333c0-2.946 2.388-5.333 5.333-5.333z"></path>
<path fill="none" stroke="#707070" style="stroke: var(--color4, #707070)" stroke-linejoin="miter" stroke-linecap="butt" stroke-miterlimit="4" stroke-width="1.3333" d="M5.333 0.667h32c2.577 0 4.667 2.089 4.667 4.667v21.333c0 2.577-2.089 4.667-4.667 4.667h-32c-2.577 0-4.667-2.089-4.667-4.667v-21.333c0-2.577 2.089-4.667 4.667-4.667z"></path>
<path fill="none" stroke="#9f9f9f" style="stroke: var(--color7, #9f9f9f)" stroke-linejoin="round" stroke-linecap="butt" stroke-miterlimit="4" stroke-width="1.3333" d="M27.32 22.66l-5.837-1.133-3.124 4.839-6.372-8.189 4.999-11.505 6.224 8.513 8.444-5.941v7.843l-5.168 5.412"></path>
<path fill="#9f9f9f" style="fill: var(--color7, #9f9f9f)" d="M27.104 19.451c1.473 0 2.667 1.194 2.667 2.667s-1.194 2.667-2.667 2.667c-1.473 0-2.667-1.194-2.667-2.667v0c0-1.473 1.194-2.667 2.667-2.667v0z"></path>
</symbol>
<symbol id="icon-radio" viewBox="0 0 43 32">
<title>radio</title>
<path fill="#191919" style="fill: var(--color3, #191919); stroke: var(--color4, #707070)" stroke="#707070" stroke-linejoin="miter" stroke-linecap="butt" stroke-miterlimit="4" stroke-width="1.3333" d="M5.333 0h32c2.946 0 5.333 2.388 5.333 5.333v21.333c0 2.946-2.388 5.333-5.333 5.333h-32c-2.946 0-5.333-2.388-5.333-5.333v-21.333c0-2.946 2.388-5.333 5.333-5.333z"></path>
<path fill="none" stroke="#707070" style="stroke: var(--color4, #707070)" stroke-linejoin="miter" stroke-linecap="butt" stroke-miterlimit="4" stroke-width="1.3333" d="M5.333 0.667h32c2.577 0 4.667 2.089 4.667 4.667v21.333c0 2.577-2.089 4.667-4.667 4.667h-32c-2.577 0-4.667-2.089-4.667-4.667v-21.333c0-2.577 2.089-4.667 4.667-4.667z"></path>
<path fill="#919191" style="fill: var(--color1, #919191)" d="M21.685 23.2c-0.003 0-0.007 0-0.011 0-3.082 0-5.581-2.499-5.581-5.581 0-1.816 0.867-3.429 2.21-4.449l0.014-0.010c0.924-0.704 2.095-1.128 3.365-1.128 3.084 0 5.584 2.5 5.584 5.584s-2.498 5.582-5.581 5.584h-0zM19.12 14.225c-1.033 0.784-1.693 2.012-1.693 3.395 0 2.348 1.903 4.251 4.251 4.251s4.251-1.903 4.251-4.251c0-0.965-0.322-1.856-0.864-2.569l0.008 0.011c-0.784-1.032-2.012-1.691-3.394-1.691-0.965 0-1.855 0.321-2.568 0.863l0.011-0.008z"></path>
<path fill="#919191" style="fill: var(--color1, #919191)" d="M23.912 17.615c0 1.234-1 2.235-2.235 2.235s-2.235-1-2.235-2.235c0-1.234 1-2.235 2.235-2.235s2.235 1 2.235 2.235z"></path>
<path fill="#919191" style="fill: var(--color1, #919191)" d="M31.487 10.223c-0.411-0.546-1.057-0.895-1.785-0.895-1.23 0-2.228 0.998-2.228 2.228 0 0.271 0.048 0.53 0.137 0.77l-0.005-0.015-2.149 1.619 0.8 1.067 2.149-1.619c0.362 0.265 0.816 0.423 1.307 0.423 1.23 0 2.228-0.998 2.228-2.228 0-0.509-0.171-0.979-0.458-1.354l0.004 0.005z"></path>
<path fill="#919191" style="fill: var(--color1, #919191)" d="M14.736 10.267c-0.412-0.545-1.059-0.893-1.787-0.893-1.234 0-2.235 1.001-2.235 2.235s1.001 2.235 2.235 2.235c0.497 0 0.956-0.162 1.328-0.437l-0.006 0.004 2.893 2.133 0.789-1.073-2.889-2.125c0.078-0.218 0.123-0.47 0.123-0.732 0-0.508-0.17-0.977-0.455-1.352l0.004 0.005z"></path>
</symbol>
<symbol id="icon-rect-tool" viewBox="0 0 43 32">
<title>rect-tool</title>
<path fill="#191919" style="fill: var(--color3, #191919); stroke: var(--color4, #707070)" stroke="#707070" stroke-linejoin="miter" stroke-linecap="butt" stroke-miterlimit="4" stroke-width="1.3333" d="M5.333 0h32c2.946 0 5.333 2.388 5.333 5.333v21.333c0 2.946-2.388 5.333-5.333 5.333h-32c-2.946 0-5.333-2.388-5.333-5.333v-21.333c0-2.946 2.388-5.333 5.333-5.333z"></path>
<path fill="none" stroke="#707070" style="stroke: var(--color4, #707070)" stroke-linejoin="miter" stroke-linecap="butt" stroke-miterlimit="4" stroke-width="1.3333" d="M5.333 0.667h32c2.577 0 4.667 2.089 4.667 4.667v21.333c0 2.577-2.089 4.667-4.667 4.667h-32c-2.577 0-4.667-2.089-4.667-4.667v-21.333c0-2.577 2.089-4.667 4.667-4.667z"></path>
<path fill="#919191" style="fill: var(--color1, #919191)" d="M32.657 5.333h-4v1.333h4v-1.333zM27.324 5.333h-4v1.333h4v-1.333zM21.991 5.333h-4v1.333h4v-1.333zM16.657 5.333h-5.333v4h1.333v-2.667h4v-1.333zM12.657 10.667h-1.333v4h1.333v-4zM12.657 16h-1.333v4h1.333v-4zM12.657 21.333h-1.333v5.333h4v-1.333h-2.667v-4zM20.657 25.333h-4v1.333h4v-1.333zM25.991 25.333h-4v1.333h4v-1.333zM31.324 25.333h-4v1.333h4v-1.333zM31.324 22.667v4h1.333v-4h-1.333zM32.657 17.333h-1.333v4h1.333v-4zM32.657 12h-1.333v4h1.333v-4zM32.657 6.667h-1.333v4h1.333v-4z"></path>
</symbol>
<symbol id="icon-right-arrows" viewBox="0 0 44 32">
<title>right-arrows</title>
<path fill="none" stroke="#919191" style="stroke: var(--color1, #919191)" stroke-linejoin="miter" stroke-linecap="round" stroke-miterlimit="4" stroke-width="5.9106" d="M4.179 27.821l11.724-11.821-11.724-11.821"></path>
<path fill="none" stroke="#919191" style="stroke: var(--color1, #919191)" stroke-linejoin="miter" stroke-linecap="round" stroke-miterlimit="4" stroke-width="5.9106" d="M27.919 27.821l11.724-11.821-11.724-11.821"></path>
</symbol>
<symbol id="icon-save-button" viewBox="0 0 43 32">
<title>save-button</title>
<path fill="#191919" style="fill: var(--color3, #191919); stroke: var(--color4, #707070)" stroke="#707070" stroke-linejoin="miter" stroke-linecap="butt" stroke-miterlimit="4" stroke-width="1.3333" d="M5.333 0h32c2.946 0 5.333 2.388 5.333 5.333v21.333c0 2.946-2.388 5.333-5.333 5.333h-32c-2.946 0-5.333-2.388-5.333-5.333v-21.333c0-2.946 2.388-5.333 5.333-5.333z"></path>
<path fill="none" stroke="#707070" style="stroke: var(--color4, #707070)" stroke-linejoin="miter" stroke-linecap="butt" stroke-miterlimit="4" stroke-width="1.3333" d="M5.333 0.667h32c2.577 0 4.667 2.089 4.667 4.667v21.333c0 2.577-2.089 4.667-4.667 4.667h-32c-2.577 0-4.667-2.089-4.667-4.667v-21.333c0-2.577 2.089-4.667 4.667-4.667z"></path>
<path fill="#919191" style="fill: var(--color1, #919191)" d="M30.083 26.667h-17.512c-1.055-0.002-1.909-0.856-1.911-1.911v-17.512c0.002-1.055 0.856-1.909 1.911-1.911h15.637l3.785 4.533v14.892c-0.003 1.053-0.857 1.907-1.911 1.908h-0zM12.572 6.588c-0.362 0.001-0.655 0.294-0.656 0.656v17.511c0.001 0.362 0.294 0.655 0.656 0.656h17.511c0.362 0 0.656-0.294 0.656-0.656v0-14.436l-3.117-3.733z"></path>
<path fill="#919191" style="fill: var(--color1, #919191)" d="M26.521 13.187h-10.735v-7.853h10.735zM17.12 11.853h8.068v-5.187h-8.068z"></path>
<path fill="#919191" style="fill: var(--color1, #919191)" d="M27.799 26.667h-13.333v-7.544c-0.001-0.025-0.002-0.054-0.002-0.084 0-1.025 0.804-1.862 1.816-1.916l0.005-0h9.697c1.016 0.053 1.821 0.89 1.821 1.915 0 0.030-0.001 0.060-0.002 0.089l0-0.004zM15.677 25.333h10.909v-6.211c0-0.009 0.001-0.019 0.001-0.029 0-0.342-0.268-0.621-0.606-0.638l-0.002-0h-9.692c-0.339 0.017-0.607 0.296-0.607 0.638 0 0.010 0 0.020 0.001 0.030l-0-0.001z"></path>
<path fill="#919191" style="fill: var(--color1, #919191)" d="M21.601 7.485h2.305v3.353h-2.305v-3.353z"></path>
</symbol>
<symbol id="icon-save-flat" viewBox="0 0 32 32">
<title>save-flat</title>
<path fill="#919191" style="fill: var(--color1, #919191)" d="M29.134 32h-26.268c-1.582-0.002-2.864-1.284-2.866-2.866v-26.268c0.002-1.582 1.284-2.864 2.866-2.866h23.456l5.678 6.8v22.338c-0.005 1.58-1.285 2.86-2.866 2.862h-0zM2.868 1.882c-0.543 0.001-0.983 0.441-0.984 0.984v26.266c0.001 0.543 0.441 0.983 0.984 0.984h26.266c0.543 0 0.984-0.441 0.984-0.984v0-21.654l-4.676-5.6z"></path>
<path fill="#919191" style="fill: var(--color1, #919191)" d="M23.792 11.78h-16.102v-11.78h16.102zM9.69 9.78h12.102v-7.78h-12.102z"></path>
<path fill="#919191" style="fill: var(--color1, #919191)" d="M25.708 32h-20v-11.316c-0.002-0.038-0.003-0.082-0.003-0.126 0-1.538 1.206-2.794 2.724-2.874l0.007-0h14.546c1.525 0.079 2.731 1.335 2.731 2.872 0 0.045-0.001 0.090-0.003 0.134l0-0.006zM7.526 30h16.364v-9.316c0.001-0.013 0.001-0.028 0.001-0.043 0-0.513-0.402-0.931-0.909-0.957l-0.002-0h-14.538c-0.508 0.026-0.911 0.444-0.911 0.957 0 0.015 0 0.030 0.001 0.045l-0-0.002z"></path>
<path fill="#919191" style="fill: var(--color1, #919191)" d="M16.412 3.228h3.458v5.030h-3.458v-5.030z"></path>
</symbol>
<symbol id="icon-scatter-points" viewBox="0 0 32 32">
<title>scatter-points</title>
<path fill="none" stroke="#919191" style="stroke: var(--color1, #919191)" stroke-linejoin="miter" stroke-linecap="butt" stroke-miterlimit="4" stroke-width="1.9394" d="M0.97 0v31.030h31.030"></path>
<path fill="#919191" style="fill: var(--color1, #919191)" d="M6.563 9.697h3.879v3.879h-3.879v-3.879z"></path>
<path fill="#919191" style="fill: var(--color1, #919191)" d="M6.563 19.394h3.879v3.879h-3.879v-3.879z"></path>
<path fill="#919191" style="fill: var(--color1, #919191)" d="M24.017 11.636h3.879v3.879h-3.879v-3.879z"></path>
<path fill="#919191" style="fill: var(--color1, #919191)" d="M24.017 21.333h3.879v3.879h-3.879v-3.879z"></path>
<path fill="#919191" style="fill: var(--color1, #919191)" d="M14.32 5.818h3.879v3.879h-3.879v-3.879z"></path>
<path fill="#919191" style="fill: var(--color1, #919191)" d="M14.32 15.515h3.879v3.879h-3.879v-3.879z"></path>
<path fill="#919191" style="fill: var(--color1, #919191)" d="M22.078 3.879h3.879v3.879h-3.879v-3.879z"></path>
</symbol>
<symbol id="icon-search" viewBox="0 0 34 32">
<title>search</title>
<path fill="#919191" style="fill: var(--color1, #919191)" d="M22.549 19.716c1.188 0 2.343-0.315 3.339-0.912l0.567-0.34 0.478-0.446c1.186-1.107 1.839-2.58 1.839-4.149 0-3.223-2.791-5.844-6.223-5.844-3.432 0-6.224 2.622-6.224 5.844 0 3.224 2.792 5.846 6.224 5.846zM33.246 26.263c-0.227 0-0.454-0.083-0.627-0.249l-5.635-5.38c-1.285 0.77-2.806 1.216-4.435 1.216-4.616 0-8.358-3.573-8.358-7.98 0-4.404 3.742-7.978 8.358-7.978s8.356 3.573 8.356 7.978c0 2.237-0.964 4.259-2.517 5.709l5.486 5.237c0.348 0.332 0.348 0.868 0 1.198-0.173 0.166-0.4 0.249-0.627 0.249z"></path>
</symbol>
<symbol id="icon-search-big" viewBox="0 0 32 32">
<title>search-big</title>
<path fill="#919191" style="fill: var(--color1, #919191)" d="M13.533 25.066c2.676 0 5.283-0.937 7.341-2.638l0.851-0.704 0.703-0.851c1.701-2.058 2.637-4.665 2.637-7.34 0-6.359-5.174-11.533-11.533-11.533s-11.533 5.174-11.533 11.533c0 6.359 5.174 11.533 11.533 11.533zM30.713 32.001c-0.33 0-0.66-0.126-0.912-0.378l-7.652-7.652c-2.34 1.934-5.342 3.096-8.615 3.096-7.474 0-13.533-6.059-13.533-13.533s6.059-13.533 13.533-13.533c7.474 0 13.533 6.059 13.533 13.533 0 3.273-1.162 6.274-3.095 8.614l7.653 7.653c0.504 0.502 0.504 1.319 0 1.822-0.252 0.252-0.582 0.378-0.912 0.378z"></path>
</symbol>
<symbol id="icon-search-button" viewBox="0 0 43 32">
<title>search-button</title>
<path fill="#191919" style="fill: var(--color3, #191919); stroke: var(--color4, #707070)" stroke="#707070" stroke-linejoin="miter" stroke-linecap="butt" stroke-miterlimit="4" stroke-width="1.3333" d="M5.333 0h32c2.946 0 5.333 2.388 5.333 5.333v21.333c0 2.946-2.388 5.333-5.333 5.333h-32c-2.946 0-5.333-2.388-5.333-5.333v-21.333c0-2.946 2.388-5.333 5.333-5.333z"></path>
<path fill="none" stroke="#707070" style="stroke: var(--color4, #707070)" stroke-linejoin="miter" stroke-linecap="butt" stroke-miterlimit="4" stroke-width="1.3333" d="M5.333 0.667h32c2.577 0 4.667 2.089 4.667 4.667v21.333c0 2.577-2.089 4.667-4.667 4.667h-32c-2.577 0-4.667-2.089-4.667-4.667v-21.333c0-2.577 2.089-4.667 4.667-4.667z"></path>
<path fill="#919191" style="fill: var(--color1, #919191)" d="M15.289 14.355c0 1.784 0.624 3.522 1.758 4.894l0.469 0.567 0.568 0.469c1.372 1.134 3.11 1.758 4.893 1.758 4.239 0 7.688-3.449 7.688-7.688s-3.449-7.688-7.688-7.688c-4.239 0-7.688 3.449-7.688 7.688zM10.666 25.807c0-0.22 0.084-0.44 0.252-0.608l5.101-5.101c-1.289-1.56-2.064-3.561-2.064-5.743 0-4.982 4.039-9.022 9.022-9.022s9.022 4.039 9.022 9.022c0 4.982-4.039 9.022-9.022 9.022-2.182 0-4.183-0.775-5.743-2.063l-5.102 5.102c-0.335 0.336-0.88 0.336-1.214 0-0.168-0.168-0.252-0.388-0.252-0.608z"></path>
</symbol>
<symbol id="icon-settings-cog" viewBox="0 0 32 32">
<title>settings-cog</title>
<path fill="none" stroke="#919191" style="stroke: var(--color1, #919191)" stroke-linejoin="miter" stroke-linecap="butt" stroke-miterlimit="10" stroke-width="2" d="M21.31 16c0 2.933-2.377 5.31-5.31 5.31s-5.31-2.377-5.31-5.31c0-2.933 2.377-5.31 5.31-5.31s5.31 2.377 5.31 5.31z"></path>
<path fill="#919191" style="fill: var(--color1, #919191)" d="M17.244 30c0.011 0 0.019-0.009 0.020-0.017l0.489-4.058 1.234-0.386c0.586-0.183 1.142-0.411 1.653-0.678l1.144-0.597 3.209 2.518c0.003 0.003 0.005 0.004 0.011 0.004 0.009 0 0.012-0.003 0.015-0.006l1.76-1.76c0.007-0.007 0.008-0.019 0.001-0.027l-2.517-3.208 0.597-1.144c0.267-0.511 0.495-1.068 0.678-1.654l0.386-1.234 4.058-0.489c0.008-0.001 0.017-0.010 0.017-0.020v-2.488c0-0.011-0.009-0.019-0.017-0.020l-4.064-0.489-0.384-1.239c-0.18-0.581-0.407-1.135-0.675-1.648l-0.597-1.144 2.518-3.209c0.005-0.006 0.006-0.018-0.002-0.026l-1.758-1.758c-0.003-0.003-0.008-0.008-0.017-0.008-0.005 0-0.007 0.001-0.012 0.005l-3.208 2.517-1.144-0.597c-0.513-0.268-1.068-0.495-1.648-0.675l-1.239-0.384-0.489-4.064c-0.001-0.008-0.009-0.017-0.020-0.017h-2.488c-0.011 0-0.019 0.009-0.020 0.017l-0.489 4.058-1.234 0.386c-0.586 0.183-1.142 0.411-1.653 0.678l-1.144 0.597-3.209-2.518c-0.003-0.003-0.005-0.004-0.011-0.004-0.009 0-0.012 0.003-0.015 0.006l-1.76 1.76c-0.007 0.007-0.008 0.019-0.001 0.027l2.517 3.208-0.597 1.144c-0.267 0.511-0.495 1.068-0.678 1.654l-0.386 1.234-4.058 0.489c-0.008 0.001-0.017 0.010-0.017 0.020v2.488c0 0.011 0.009 0.019 0.017 0.020l4.064 0.489 0.384 1.239c0.18 0.581 0.407 1.135 0.675 1.648l0.597 1.144-2.518 3.209c-0.005 0.006-0.006 0.018 0.002 0.026l1.758 1.758c0.003 0.003 0.008 0.008 0.017 0.008 0.005 0 0.007-0.001 0.012-0.005l3.208-2.517 1.144 0.597c0.513 0.268 1.068 0.495 1.648 0.675l1.239 0.384 0.489 4.064c0.001 0.008 0.009 0.017 0.020 0.017h2.488zM17.244 32h-2.488c-1.022 0-1.884-0.764-2.006-1.778l-0.334-2.776c-0.678-0.21-1.342-0.478-1.982-0.812l-2.192 1.72c-0.368 0.289-0.808 0.431-1.246 0.431-0.52 0-1.037-0.2-1.43-0.591l-1.76-1.76c-0.722-0.724-0.792-1.872-0.16-2.676l1.72-2.192c-0.334-0.64-0.602-1.304-0.812-1.982l-2.776-0.334c-1.014-0.122-1.778-0.984-1.778-2.006v-2.488c0-1.022 0.764-1.884 1.778-2.006l2.774-0.334c0.212-0.678 0.48-1.342 0.814-1.982l-1.72-2.192c-0.632-0.804-0.562-1.954 0.16-2.676l1.76-1.76c0.392-0.392 0.909-0.591 1.429-0.591 0.439 0 0.879 0.142 1.247 0.431l2.192 1.72c0.64-0.334 1.304-0.602 1.982-0.814l0.334-2.774c0.122-1.014 0.984-1.778 2.006-1.778h2.488c1.022 0 1.884 0.764 2.006 1.778l0.334 2.776c0.678 0.21 1.342 0.478 1.982 0.812l2.192-1.72c0.368-0.289 0.808-0.431 1.246-0.431 0.52 0 1.037 0.2 1.43 0.591l1.76 1.76c0.722 0.724 0.792 1.872 0.16 2.676l-1.72 2.192c0.334 0.64 0.602 1.304 0.812 1.982l2.776 0.334c1.014 0.122 1.778 0.984 1.778 2.006v2.488c0 1.022-0.764 1.884-1.778 2.006l-2.774 0.334c-0.212 0.678-0.48 1.342-0.814 1.982l1.72 2.192c0.632 0.804 0.562 1.954-0.16 2.676l-1.76 1.76c-0.392 0.392-0.909 0.591-1.429 0.591-0.439 0-0.879-0.142-1.247-0.431l-2.192-1.72c-0.64 0.334-1.304 0.602-1.982 0.814l-0.334 2.774c-0.122 1.014-0.984 1.778-2.006 1.778z"></path>
</symbol>
<symbol id="icon-sub-group" viewBox="0 0 43 32">
<title>sub-group</title>
<path fill="#191919" style="fill: var(--color3, #191919); stroke: var(--color4, #707070)" stroke="#707070" stroke-linejoin="miter" stroke-linecap="butt" stroke-miterlimit="4" stroke-width="1.3333" d="M5.333 0h32c2.946 0 5.333 2.388 5.333 5.333v21.333c0 2.946-2.388 5.333-5.333 5.333h-32c-2.946 0-5.333-2.388-5.333-5.333v-21.333c0-2.946 2.388-5.333 5.333-5.333z"></path>
<path fill="none" stroke="#707070" style="stroke: var(--color4, #707070)" stroke-linejoin="miter" stroke-linecap="butt" stroke-miterlimit="4" stroke-width="1.3333" d="M5.333 0.667h32c2.577 0 4.667 2.089 4.667 4.667v21.333c0 2.577-2.089 4.667-4.667 4.667h-32c-2.577 0-4.667-2.089-4.667-4.667v-21.333c0-2.577 2.089-4.667 4.667-4.667z"></path>
<path fill="none" stroke="#919191" style="stroke: var(--color1, #919191)" stroke-linejoin="miter" stroke-linecap="butt" stroke-miterlimit="10" stroke-width="1.3333" d="M30.097 21.333h2.667c0.736 0 1.333 0.597 1.333 1.333v2.667c0 0.736-0.597 1.333-1.333 1.333h-2.667c-0.736 0-1.333-0.597-1.333-1.333v-2.667c0-0.736 0.597-1.333 1.333-1.333z"></path>
<path fill="none" stroke="#919191" style="stroke: var(--color1, #919191)" stroke-linejoin="miter" stroke-linecap="butt" stroke-miterlimit="10" stroke-width="1.3333" d="M30.097 22h2.667c0.368 0 0.667 0.298 0.667 0.667v2.667c0 0.368-0.298 0.667-0.667 0.667h-2.667c-0.368 0-0.667-0.298-0.667-0.667v-2.667c0-0.368 0.298-0.667 0.667-0.667z"></path>
<path fill="none" stroke="#919191" style="stroke: var(--color1, #919191)" stroke-linejoin="miter" stroke-linecap="butt" stroke-miterlimit="10" stroke-width="1.3333" d="M24.764 16h2.667c0.736 0 1.333 0.597 1.333 1.333v2.667c0 0.736-0.597 1.333-1.333 1.333h-2.667c-0.736 0-1.333-0.597-1.333-1.333v-2.667c0-0.736 0.597-1.333 1.333-1.333z"></path>
<path fill="none" stroke="#919191" style="stroke: var(--color1, #919191)" stroke-linejoin="miter" stroke-linecap="butt" stroke-miterlimit="10" stroke-width="1.3333" d="M24.764 16.667h2.667c0.368 0 0.667 0.298 0.667 0.667v2.667c0 0.368-0.298 0.667-0.667 0.667h-2.667c-0.368 0-0.667-0.298-0.667-0.667v-2.667c0-0.368 0.298-0.667 0.667-0.667z"></path>
<path fill="none" stroke="#919191" style="stroke: var(--color1, #919191)" stroke-linejoin="miter" stroke-linecap="butt" stroke-miterlimit="10" stroke-width="1.3333" d="M14.097 5.333h8c0.736 0 1.333 0.597 1.333 1.333v8c0 0.736-0.597 1.333-1.333 1.333h-8c-0.736 0-1.333-0.597-1.333-1.333v-8c0-0.736 0.597-1.333 1.333-1.333z"></path>
<path fill="none" stroke="#919191" style="stroke: var(--color1, #919191)" stroke-linejoin="miter" stroke-linecap="butt" stroke-miterlimit="10" stroke-width="1.3333" d="M14.097 6h8c0.368 0 0.667 0.298 0.667 0.667v8c0 0.368-0.298 0.667-0.667 0.667h-8c-0.368 0-0.667-0.298-0.667-0.667v-8c0-0.368 0.298-0.667 0.667-0.667z"></path>
<path fill="#919191" style="fill: var(--color1, #919191)" d="M29.487 24.667h-11.389c-0.368 0-0.667-0.298-0.667-0.667v0-8.889h1.333v8.223h10.723z"></path>
<path fill="#919191" style="fill: var(--color1, #919191)" d="M18.097 18h6.277v1.333h-6.277v-1.333z"></path>
</symbol>
<symbol id="icon-three-circles" viewBox="0 0 32 32">
<title>three-circles</title>
<path fill="none" stroke="#919191" style="stroke: var(--color1, #919191)" stroke-linejoin="miter" stroke-linecap="butt" stroke-miterlimit="4" stroke-width="2" d="M32 7c0 3.866-3.134 7-7 7s-7-3.134-7-7c0-3.866 3.134-7 7-7s7 3.134 7 7z"></path>
<path fill="none" stroke="#919191" style="stroke: var(--color1, #919191)" stroke-linejoin="miter" stroke-linecap="butt" stroke-miterlimit="4" stroke-width="2" d="M31 7c0 3.314-2.686 6-6 6s-6-2.686-6-6c0-3.314 2.686-6 6-6s6 2.686 6 6z"></path>
<path fill="none" stroke="#919191" style="stroke: var(--color1, #919191)" stroke-linejoin="miter" stroke-linecap="butt" stroke-miterlimit="4" stroke-width="2" d="M32 25c0 3.866-3.134 7-7 7s-7-3.134-7-7c0-3.866 3.134-7 7-7s7 3.134 7 7z"></path>
<path fill="none" stroke="#919191" style="stroke: var(--color1, #919191)" stroke-linejoin="miter" stroke-linecap="butt" stroke-miterlimit="4" stroke-width="2" d="M31 25c0 3.314-2.686 6-6 6s-6-2.686-6-6c0-3.314 2.686-6 6-6s6 2.686 6 6z"></path>
<path fill="none" stroke="#919191" style="stroke: var(--color1, #919191)" stroke-linejoin="miter" stroke-linecap="butt" stroke-miterlimit="4" stroke-width="2" d="M14 16c0 3.866-3.134 7-7 7s-7-3.134-7-7c0-3.866 3.134-7 7-7s7 3.134 7 7z"></path>
<path fill="none" stroke="#919191" style="stroke: var(--color1, #919191)" stroke-linejoin="miter" stroke-linecap="butt" stroke-miterlimit="4" stroke-width="2" d="M13 16c0 3.314-2.686 6-6 6s-6-2.686-6-6c0-3.314 2.686-6 6-6s6 2.686 6 6z"></path>
<path fill="none" stroke="#919191" style="stroke: var(--color1, #919191)" stroke-linejoin="miter" stroke-linecap="butt" stroke-miterlimit="4" stroke-width="2" d="M12.74 13.076l6.224-3.52"></path>
<path fill="none" stroke="#919191" style="stroke: var(--color1, #919191)" stroke-linejoin="miter" stroke-linecap="butt" stroke-miterlimit="4" stroke-width="2" d="M12.52 18.788l6.234 3.536"></path>
</symbol>
<symbol id="icon-undo" viewBox="0 0 26 32">
<title>undo</title>
<path fill="#919191" style="fill: var(--color1, #919191)" d="M12.75 7.346l-6.928 0.022 5.326-5.068c0.255-0.238 0.414-0.577 0.414-0.952s-0.159-0.714-0.413-0.951l-0.001-0.001c-0.261-0.244-0.613-0.393-1-0.393s-0.739 0.15-1.001 0.394l0.001-0.001-9.146 8.702 8.904 8.472c0.261 0.244 0.613 0.393 1 0.393s0.739-0.15 1.001-0.394l-0.001 0.001c0.255-0.238 0.415-0.576 0.415-0.952s-0.159-0.714-0.414-0.951l-0.001-0.001-5.532-5.264 7.436-0.026c0.097-0.004 0.212-0.005 0.326-0.005 5.105 0 9.289 3.944 9.671 8.951l0.002 0.033c0 0.020 0 0.044 0 0.068 0 5.257-4.261 9.518-9.518 9.518-0.069 0-0.138-0.001-0.207-0.002l0.010 0-9.418 0.030c-0.021-0.001-0.046-0.002-0.072-0.002-0.838 0-1.518 0.68-1.518 1.518s0.68 1.518 1.518 1.518c0.029 0 0.059-0.001 0.088-0.003l-0.004 0 9.418-0.030c0.076 0.002 0.166 0.003 0.256 0.003 6.795 0 12.338-5.358 12.635-12.080l0.001-0.027c-0.18-6.956-5.861-12.526-12.844-12.526-0.143 0-0.285 0.002-0.427 0.007l0.021-0.001z"></path>
</symbol>
<symbol id="icon-up-arrows" viewBox="0 0 23 32">
<title>up-arrows</title>
<path fill="none" stroke="#919191" style="stroke: var(--color1, #919191)" stroke-linejoin="miter" stroke-linecap="round" stroke-miterlimit="4" stroke-width="4.3176" d="M20.323 28.945l-8.635-8.564-8.635 8.564"></path>
<path fill="none" stroke="#919191" style="stroke: var(--color1, #919191)" stroke-linejoin="miter" stroke-linecap="round" stroke-miterlimit="4" stroke-width="4.3176" d="M20.323 11.604l-8.635-8.564-8.635 8.564"></path>
</symbol>
<symbol id="icon-up-down" viewBox="0 0 32 32">
<title>up-down</title>
<path fill="#919191" style="fill: var(--color1, #919191)" d="M8.52 32c-0.681-0.038-1.22-0.6-1.22-1.288 0-0.023 0.001-0.045 0.002-0.067l-0 0.003v-26.65c-0.004-0.036-0.006-0.078-0.006-0.121 0-0.676 0.548-1.224 1.224-1.224s1.224 0.548 1.224 1.224c0 0.043-0.002 0.085-0.006 0.126l0-0.005v26.65c0.001 0.019 0.002 0.040 0.002 0.062 0 0.688-0.538 1.25-1.216 1.29l-0.003 0z"></path>
<path fill="#919191" style="fill: var(--color1, #919191)" d="M1.218 9.996c-0.673-0.001-1.219-0.547-1.219-1.22 0-0.337 0.136-0.641 0.357-0.862l7.6-7.6c0.194-0.194 0.462-0.314 0.758-0.314s0.564 0.12 0.758 0.314l7.544 7.548c0.208 0.218 0.336 0.514 0.336 0.84 0 0.673-0.545 1.218-1.218 1.218-0.326 0-0.622-0.128-0.84-0.336l-6.58-6.582-6.632 6.634c-0.218 0.222-0.521 0.36-0.857 0.36-0.002 0-0.005 0-0.007-0h0z"></path>
<path fill="#919191" style="fill: var(--color1, #919191)" d="M23.478 0c0.682 0.038 1.22 0.6 1.22 1.288 0 0.023-0.001 0.046-0.002 0.069l0-0.003v26.648c0.004 0.036 0.006 0.078 0.006 0.121 0 0.676-0.548 1.224-1.224 1.224s-1.224-0.548-1.224-1.224c0-0.043 0.002-0.085 0.006-0.126l-0 0.005v-26.648c-0.001-0.020-0.002-0.044-0.002-0.068 0-0.687 0.538-1.249 1.216-1.286l0.003-0z"></path>
<path fill="#919191" style="fill: var(--color1, #919191)" d="M30.78 22.012c0.672 0 1.218 0.546 1.218 1.218 0 0.337-0.137 0.642-0.357 0.862v0l-7.6 7.6c-0.194 0.194-0.461 0.314-0.757 0.314s-0.563-0.12-0.757-0.314l-7.546-7.548c-0.22-0.22-0.356-0.525-0.356-0.861 0-0.673 0.545-1.218 1.218-1.218 0.337 0 0.641 0.137 0.862 0.357l6.58 6.584 6.63-6.638c0.222-0.22 0.527-0.356 0.864-0.356 0.001 0 0.002 0 0.002 0h-0z"></path>
</symbol>
<symbol id="icon-user-circle" viewBox="0 0 32 32">
<title>user-circle</title>
<path fill="none" stroke="#919191" style="stroke: var(--color1, #919191)" stroke-linejoin="miter" stroke-linecap="butt" stroke-miterlimit="4" stroke-width="1.3333" d="M32 16c0 8.837-7.163 16-16 16s-16-7.163-16-16c0-8.837 7.163-16 16-16s16 7.163 16 16z"></path>
<path fill="none" stroke="#919191" style="stroke: var(--color1, #919191)" stroke-linejoin="miter" stroke-linecap="butt" stroke-miterlimit="4" stroke-width="1.3333" d="M31.333 16c0 8.468-6.865 15.333-15.333 15.333s-15.333-6.865-15.333-15.333c0-8.468 6.865-15.333 15.333-15.333s15.333 6.865 15.333 15.333z"></path>
<path fill="#919191" style="fill: var(--color1, #919191)" d="M7.425 24.756v-2.333c0-2.567 3.92-4.667 8.711-4.667s8.711 2.1 8.711 4.667v2.333zM11.78 10.756c-0.002-0.045-0.002-0.097-0.002-0.15 0-2.44 1.933-4.428 4.35-4.517l0.008-0c2.426 0.089 4.358 2.078 4.358 4.517 0 0.053-0.001 0.105-0.003 0.157l0-0.008c0.002 0.045 0.003 0.098 0.003 0.151 0 2.439-1.933 4.427-4.35 4.516l-0.008 0c-2.426-0.089-4.359-2.077-4.359-4.516 0-0.053 0.001-0.106 0.003-0.158l-0 0.008z"></path>
</symbol>
<symbol id="icon-z-arc" viewBox="0 0 43 32">
<title>z-arc</title>
<path fill="#191919" style="fill: var(--color3, #191919); stroke: var(--color4, #707070)" stroke="#707070" stroke-linejoin="miter" stroke-linecap="butt" stroke-miterlimit="4" stroke-width="1.3333" d="M5.333 0h32c2.946 0 5.333 2.388 5.333 5.333v21.333c0 2.946-2.388 5.333-5.333 5.333h-32c-2.946 0-5.333-2.388-5.333-5.333v-21.333c0-2.946 2.388-5.333 5.333-5.333z"></path>
<path fill="none" stroke="#707070" style="stroke: var(--color4, #707070)" stroke-linejoin="miter" stroke-linecap="butt" stroke-miterlimit="4" stroke-width="1.3333" d="M5.333 0.667h32c2.577 0 4.667 2.089 4.667 4.667v21.333c0 2.577-2.089 4.667-4.667 4.667h-32c-2.577 0-4.667-2.089-4.667-4.667v-21.333c0-2.577 2.089-4.667 4.667-4.667z"></path>
<path fill="#919191" style="fill: var(--color1, #919191)" d="M16.691 7.537c-0.563 0.563-1.475 0.563-2.038 0s-0.563-1.475 0-2.038c0.563-0.563 1.475-0.563 2.038 0s0.563 1.475 0 2.038z"></path>
<path fill="#919191" style="fill: var(--color1, #919191)" d="M20.977 25.201l-6.317-0.094c-0.296-0.006-0.591-0.122-0.818-0.348-0.098-0.099-0.176-0.21-0.233-0.329l0.004 0.008c-0.192-0.393-0.15-0.862 0.124-1.209l0.003-0.004 6.278-7.779-4.787-0.073c-0.295-0.007-0.589-0.123-0.815-0.348s-0.342-0.52-0.348-0.816v0.001c-0.007-0.292 0.101-0.586 0.323-0.808s0.516-0.33 0.808-0.323l0.001 0 7.194 0.113c0.296 0.006 0.591 0.122 0.817 0.348 0.098 0.098 0.176 0.209 0.232 0.328l-0.004-0.008c0.193 0.392 0.15 0.862-0.124 1.209l-0.003 0.004-6.287 7.774 3.909 0.060c1.927 0.040 3.863-0.675 5.33-2.142s2.182-3.404 2.142-5.327l-0-0.003c-0.044-1.956-0.813-3.904-2.309-5.4s-3.443-2.266-5.404-2.31l0.004 0-1.283-0.025c-0.295-0.006-0.59-0.122-0.815-0.348s-0.342-0.52-0.348-0.816v0.001c-0.007-0.292 0.101-0.586 0.323-0.808s0.516-0.33 0.808-0.323l0.001 0 1.282 0.026c2.547 0.057 5.083 1.059 7.030 3.007s2.95 4.483 3.007 7.036l-0-0.005c0.053 2.51-0.877 5.032-2.789 6.944-1.91 1.91-4.429 2.84-6.932 2.789l-0.004-0z"></path>
</symbol>
</defs>
</svg>
